<svg width="240" height="387" viewBox="0 0 240 387" fill="none" xmlns="http://www.w3.org/2000/svg">
<path d="M0 315C0 315 6.35589 324.88 9 328C29.5 358 87.5 399 157 382.5C160.264 382.015 169 379.5 172.5 378C160.966 355.949 155.2 344.399 159.246 320.573C169.736 320.592 178.066 320.418 188.008 316.165C196.323 312.608 204.16 307.283 209.302 299.605C210.856 297.285 212.412 293.355 213.966 291.374C215.098 289.932 219.489 287.636 221.289 286.462C230.228 280.631 233.985 274.009 237.898 264.455C239.068 260.831 239.775 257.073 240 253.271C239.189 244.192 242.501 225.748 222.339 205.363C220.601 203.998 215.166 199.945 213.832 198.547C209.881 194.406 203.779 188.19 204.003 181.97C204.16 177.616 204.827 173.69 204.692 169.102C204.2 152.429 204.567 133.045 196.233 118.188C193.916 114.057 191.072 111.048 187.809 107.808C194.833 97.4149 199.011 90.2509 203.917 78.6073C205.786 74.6781 208.682 62.1271 209.259 57.2521C211.011 39.9872 209.028 19.1416 199.266 4.41715C196.017 -0.482869 190.594 -1.56477 186.186 2.48243C181.392 6.88449 177.885 11.5176 174.049 16.7038C161.739 33.3418 154.585 48.328 152.681 69.1069L152.303 73.19C149.739 73.3043 147.974 73.2882 145.406 73.1663C146.408 72.0825 149.458 68.5538 150.376 67.7394C150.399 67.1516 150.368 66.7365 150.338 66.15L150.338 66.1491C149.737 65.175 148.927 63.8609 147.816 63.4523C142.872 61.6369 132.811 66.3104 128.254 68.1174C130.935 64.4494 131.988 62.4416 133.671 58.2333C134.964 55.0011 133.355 54.2528 130.721 55.2436C125.688 51.9556 115.197 62.4858 111.811 65.7232C110.463 67.3172 109.023 69.0934 107.632 70.6264L105.405 73.5231C104.981 71.2064 104.52 68.8965 104.024 66.594C99.5845 46.5987 95.0984 33.3764 83.6049 16.1295C73.0181 0.243535 63.0423 -7.47098 50.9681 13.3458C39.2423 34.1548 36.2244 61.3019 42.4071 84.321C42.9043 86.2075 43.4748 88.0739 44.1173 89.916C45.676 94.1005 47.5863 99.4747 49.7501 103.314C52.8707 108.851 56.3173 113.939 59.3005 119.618C55.4709 125.262 49.9895 131.711 45.8633 137.317C42.8788 141.371 11.8969 185.302 35.9343 175.854L35.8788 175.978C34.3409 179.43 32.946 182.561 31.189 185.919C27.1944 192.626 17.4431 207.972 18.7336 216.393C19.6255 222.211 26.4186 218.044 29.4621 215.742C27.1052 226.515 24.8939 237.613 21.9568 248.268C21.1348 251.25 17.2692 255.306 18.9614 258.159C20.9853 259.682 24.4967 259.568 27.0275 259.547C24.4216 271.596 16.118 289.918 16.118 289.918C16.118 289.918 10.4396 301.283 6.86339 306.603C4.44739 310.196 0 315 0 315Z" fill="#371B04"/>
<path fill-rule="evenodd" clip-rule="evenodd" d="M155 383C132.693 387.935 109.372 387.026 87.5 381C53.9747 371.764 23.8528 350.931 6 324C10 318 14.8664 313.017 18.5 306C33 278 38.62 247.995 43.8627 218.277C46.0222 205.562 48.4365 192.891 51.1043 180.273C54.4199 164.174 59.6472 135.34 72.9644 124.781C74.3004 123.813 75.3951 123.017 76.8223 122.161L77.1893 122.231C78.6017 121.665 77.9587 121.636 79.1792 121.983C80.1059 123.589 79.5591 124.205 78.9065 125.916C76.9006 131.35 73.9462 136.398 72.2149 141.941C70.7627 146.59 65.3307 167.607 64.2167 173.562C62.2288 184.187 61.5665 195.051 60.8786 205.827C60.4859 211.981 59.3295 218.642 60.6675 224.63C67.0447 253.173 101.024 262.474 105.838 262.905C106.413 262.962 106.994 262.936 107.562 262.828C108.669 261.935 108.233 261.4 107.793 260.116L108.477 259.572C111.686 270.024 116.989 278.213 123.925 286.503C124.87 287.633 126.061 289.034 126.896 290.231C81.7358 276.165 68.5841 259.432 61.3778 245.757C52.1277 228.204 53.4631 211.612 54.8556 192.466L54.5964 192.454C54.5151 192.703 54.4383 192.953 54.366 193.206C47.5999 216.995 49.4236 245.779 58.9503 259.234C79.4808 288.229 140.054 311.641 146.637 315.229C146.159 319.742 143.891 321 143.891 333.727C145 356 146.694 359.75 151.13 372.016C152.229 375.052 153.922 380.305 155 383Z" fill="#7D5028"/>
<path fill-rule="evenodd" clip-rule="evenodd" d="M168.23 200.985L167.725 200.563L167.948 200.087C178.511 194.261 193.87 193.17 205.493 196.136C200.73 190.792 194.667 182.695 194.495 175.201C194.495 175.201 199.09 131.137 183.443 134.692C181.211 135.199 174.581 141.72 172.846 139.011C172.752 137.621 173.086 136.557 173.713 135.21C175.032 132.379 177.721 127.147 180.783 126.086C182.389 125.53 185.372 127.185 186.835 127.92C184.136 121.271 176.439 110.188 170.572 105.937C168.771 105.638 170.984 106.379 166.099 104.592C166.726 105.713 167.387 106.861 167.978 107.999C170.286 112.449 167.914 113.291 161.384 112.297C155.212 111.358 153.045 110.441 147.493 107.475C149.212 110.357 152.483 115.252 153.044 118.447C153.987 123.818 144.21 121.244 141.726 119.96C136.864 117.446 133.118 113.991 128.97 110.427C129.671 112.202 128.84 119.222 125.745 119.432C114.941 120.165 106.955 112.279 99.6193 106.389C99.6193 106.389 97.8123 114.265 97.2046 115.88C97.0583 116.27 95.9732 118.652 95.9732 118.652L95.9379 115.751C95.2179 108.484 95.8262 101.264 95.6684 94.0017C95.1755 71.324 91.9953 47.9282 79.9024 28.2492C76.6182 22.9045 66.5153 1.73614 59.0992 13.5171C48.2917 30.6858 47.7353 53.3776 50.1674 72.9802C52.3671 87.1021 65.0317 105.988 73.9783 116.708C74.8471 117.75 77.4697 121.012 76.8223 122.161L77.1893 122.231C78.6017 121.665 77.9587 121.636 79.1792 121.983C80.1059 123.589 79.5591 124.205 78.9065 125.916C76.9006 131.35 73.9462 136.398 72.2149 141.941C70.7627 146.59 65.3307 167.607 64.2167 173.562C62.2288 184.187 61.5665 195.051 60.8786 205.827C60.4859 211.981 59.2025 212.255 60.0258 221.421C62.6555 250.697 79.6644 257.821 86.3361 260.152C89.0011 261.084 93.3338 261.809 97.4118 262.282C98.9455 262.362 104.626 262.796 105.838 262.905C106.65 262.914 107.25 262.889 107.562 262.828C108.669 261.935 108.233 261.4 107.793 260.116C107.085 258.997 106.453 257.995 105.928 256.768C104.17 252.657 104.136 248.01 105.863 243.887C106.711 241.868 107.96 240.042 109.536 238.52C111.111 236.998 112.979 235.813 115.027 235.036C118.399 233.754 123.639 233.205 126.972 234.643C128.05 234.816 131.501 234.719 132.787 234.707C140.432 216.846 150.88 208.706 168.23 200.985ZM79.3499 95.7131C80.7604 93.8239 79.6714 91.7807 78.9277 89.8229C76.674 87.2317 70.5368 89.5784 63.7868 51.8035C61.639 39.7825 68.013 38.5517 77.0911 56.7369C75.1577 51.5847 73.1684 46.9015 71.6739 41.5889C86.4734 54.0058 93.6111 96.7776 82.7413 112.607C79.9756 108.896 73.83 96.0166 72.2219 91.456C74.5109 92.8966 76.9481 94.5118 79.3499 95.7131ZM98.4867 189.005L97.442 188.718C96.5603 186.655 95.4361 182.829 95.3385 180.027C95.0299 171.141 97.1828 159.148 106.889 155.876C117.415 152.327 127.18 160.802 130.051 170.493C130.951 173.528 132.038 179.565 130.572 182.409L129.831 180.832C130.273 205.433 110.712 212.176 98.4867 189.005Z" fill="#A06838"/>
<path fill-rule="evenodd" clip-rule="evenodd" d="M191.022 154.864C183.181 145.174 176.736 158.364 176.252 167.985C175.937 174.241 175.823 181.497 179.918 186.587C180.296 187.057 181.487 187.821 182.06 187.705C185.365 187.031 188.112 186.455 189.754 183.016C192.086 178.131 193.714 174.359 193.497 167.76C193.273 160.973 193.397 157.8 191.022 154.864Z" fill="#371B04"/>
<path fill-rule="evenodd" clip-rule="evenodd" d="M182.06 187.705C192.317 192.646 193.853 177.953 193.594 173.841C193.243 168.255 192.989 160.911 188.225 157.3C182.97 153.316 177.728 159.178 177.513 165.595C177.384 169.448 183.4 153.026 189.005 166.477C190.617 171.376 192.086 178.131 189.754 183.016C188.112 186.455 185.365 187.031 182.06 187.705Z" fill="#ECD2A3"/>
<path fill-rule="evenodd" clip-rule="evenodd" d="M182.78 164.304C182.219 164.545 181.758 164.973 181.475 165.514C181.191 166.055 181.102 166.677 181.223 167.276C181.344 167.875 181.667 168.414 182.138 168.803C182.609 169.192 183.199 169.407 183.81 169.412C184.207 169.416 184.599 169.331 184.958 169.163C185.317 168.996 185.635 168.751 185.887 168.445C186.14 168.139 186.32 167.781 186.417 167.397C186.513 167.012 186.523 166.611 186.444 166.223C186.366 165.834 186.202 165.468 185.964 165.151C185.726 164.834 185.42 164.574 185.069 164.39C184.718 164.206 184.33 164.103 183.934 164.088C183.538 164.073 183.144 164.147 182.78 164.304Z" fill="white"/>
<path fill-rule="evenodd" clip-rule="evenodd" d="M108.477 259.572L107.793 260.116C107.085 258.997 106.453 257.995 105.928 256.768C104.17 252.657 104.136 248.01 105.863 243.887C106.711 241.868 107.96 240.042 109.536 238.52C111.111 236.998 112.979 235.813 115.027 235.036C118.399 233.754 123.639 233.205 126.972 234.643L126.492 234.918C122.058 237.43 117.433 238.401 113.596 241.957C108.649 246.541 107.667 253.164 108.477 259.572Z" fill="#371B04"/>
<path fill-rule="evenodd" clip-rule="evenodd" d="M105.838 262.905C106.413 262.962 106.994 262.936 107.562 262.828C107.25 262.889 106.65 262.914 105.838 262.905Z" fill="#371B04"/>
<path fill-rule="evenodd" clip-rule="evenodd" d="M129.831 180.832C130.273 205.433 110.712 212.176 98.4867 189.005C97.8854 179.356 97.5634 162.54 109.271 159.889C122.396 156.918 127.728 171.432 129.831 180.832ZM111.859 167.739C113.388 167.692 114.806 167.637 116.329 167.893C117.865 168.142 119.336 168.696 120.654 169.522C121.973 170.348 123.113 171.43 124.007 172.703C128.853 179.574 128.187 193.67 120.656 198.676C108.545 201.249 104.1 185.09 106.11 176.066C107.015 172.001 108.496 169.981 111.859 167.739Z" fill="#ECD2A3"/>
<path fill-rule="evenodd" clip-rule="evenodd" d="M98.4867 189.005L97.442 188.718C96.5603 187.297 95.4361 182.829 95.3385 180.027C95.0299 171.141 97.1828 159.148 106.889 155.876C117.415 152.327 127.18 160.802 130.051 170.493C130.951 173.528 132.038 179.565 130.572 182.409L129.831 180.832C127.728 171.432 122.396 156.918 109.271 159.889C97.5634 162.54 97.8854 179.356 98.4867 189.005Z" fill="#371B04"/>
<path fill-rule="evenodd" clip-rule="evenodd" d="M111.859 167.739C117.88 164.484 122.2 170.13 124.007 172.703C128.853 179.574 128.187 193.67 120.656 198.676C109.828 203.816 104.1 185.09 106.11 176.066C107.015 172.001 108.496 169.981 111.859 167.739ZM116.678 169.206C120.169 169.834 122.394 171.112 119.876 174.741C115.693 174.848 114.147 172.974 116.678 169.206Z" fill="#371B04"/>
<path fill-rule="evenodd" clip-rule="evenodd" d="M116.678 169.206C119.527 167.909 123.036 172.395 119.876 174.741C115.693 176.773 113.133 170.82 116.678 169.206Z" fill="white"/>
<path fill-rule="evenodd" clip-rule="evenodd" d="M79.3499 95.7131C80.7604 93.8239 79.6714 91.7807 78.9277 89.8229C76.674 87.2317 70.5368 89.5784 63.7868 51.8035C61.639 39.7825 68.013 38.5517 77.0911 56.7369C78.2475 58.2673 79.0195 61.9012 79.6606 63.7692C84.5093 77.902 83.333 83.8191 82.5893 97.5913C81.5671 97.0638 80.1983 96.4414 79.3499 95.7131Z" fill="#552F12"/>
<path fill-rule="evenodd" clip-rule="evenodd" d="M77.0911 56.7369C75.1577 51.5847 73.1684 46.9015 71.6739 41.5889C86.4734 54.0058 93.6111 96.7776 82.7413 112.607C79.9756 108.896 73.83 96.0166 72.2219 91.456C74.5109 92.8966 76.9481 94.5118 79.3499 95.7131C80.1983 96.4414 81.5671 97.0638 82.5893 97.5913C83.333 83.8191 84.5093 77.902 79.6606 63.7692C79.0195 61.9012 78.2475 58.2673 77.0911 56.7369ZM112.586 130.965C120.881 131.503 123.888 135.98 131.099 140.574C132.196 141.274 131.029 143.19 130.51 143.709C127.649 146.572 121.58 143.464 118.245 140.604C114.892 137.729 112.106 136.551 107.717 137.391C102.272 138.892 99.1483 143.504 94.2566 145.632C93.391 146.008 92.551 146.003 91.6898 145.574C90.511 144.025 93.5033 140.898 95.4515 138.725C99.7836 133.894 104.909 130.467 112.586 130.965Z" fill="#371B04"/>
<path fill-rule="evenodd" clip-rule="evenodd" d="M179.212 198.322C191.297 196.584 203.58 199.675 213.402 206.926C218.626 210.843 223.001 216.344 225.964 222.141C232.015 231.363 231.564 244.414 229.775 254.818C228.011 265.067 220.406 275.28 211.647 280.824C189.046 295.127 155.486 288.928 135.687 272.375C133.081 270.196 130.328 265.645 128.36 262.87C127.54 261.713 124.921 257.618 126.595 256.684C128.366 256.918 129.382 257.744 130.73 257.513C131.156 256.979 131.368 256.616 131.113 255.836C129.017 249.414 115.055 252.461 117.192 259.465C119.11 261.435 120.078 260.267 121.871 259.164C129.463 277.364 143.146 287.944 162.315 292.58C175.84 295.85 186.781 294.678 200.147 292.67C190.463 302.444 181.367 308.412 167.073 308.595C154.748 308.752 144.491 304.651 134.882 297.046C133.197 295.713 128.089 291.021 126.896 290.231C126.061 289.034 124.87 287.633 123.925 286.503C116.989 278.213 111.686 270.024 108.477 259.572C107.667 253.164 108.649 246.541 113.596 241.957C117.433 238.401 122.058 237.43 126.492 234.918L126.972 234.643C128.05 234.816 131.501 234.719 132.787 234.707C140.432 216.846 150.88 208.706 168.23 200.985C171.827 199.596 175.418 198.885 179.212 198.322ZM219.665 248.859C223.349 246.457 225.946 244.002 226.25 239.298C226.471 235.877 224.669 231.567 220.682 231.661C217.509 231.736 215.536 234.146 213.576 236.293C207.74 243.472 212.019 252.739 219.665 248.859ZM164.092 243.122C166.772 246.445 171.397 248.862 175.675 249.182C183.353 249.934 186.294 248.71 184.995 240.622C182.938 227.808 165.965 223.545 161.945 237.015C161.294 239.196 162.852 241.564 164.092 243.122Z" fill="#E8BC80"/>
<path fill-rule="evenodd" clip-rule="evenodd" d="M164.092 243.122C162.852 241.564 161.294 239.196 161.945 237.015C165.965 223.545 182.938 227.808 184.995 240.622C186.294 248.71 183.353 249.934 175.675 249.182C175.593 247.824 176.509 245.113 176.281 244.286C175.469 241.351 170.409 236.83 167.114 237.848C164.784 238.568 165.455 241.527 164.092 243.122Z" fill="#371B04"/>
<path fill-rule="evenodd" clip-rule="evenodd" d="M175.675 249.182C171.397 248.862 166.772 246.445 164.092 243.122C165.455 241.527 164.784 238.568 167.114 237.848C170.409 236.83 175.469 241.351 176.281 244.286C176.509 245.113 175.593 247.824 175.675 249.182Z" fill="#7F4E27"/>
<path fill-rule="evenodd" clip-rule="evenodd" d="M213.576 236.293C215.536 234.146 217.509 231.736 220.682 231.661C224.669 231.567 226.471 235.877 226.25 239.298C225.946 244.002 223.349 246.457 219.665 248.859C217.653 244.485 223.254 239.922 215.806 237.135L213.576 236.293Z" fill="#371B04"/>
<path fill-rule="evenodd" clip-rule="evenodd" d="M219.665 248.859C212.019 252.739 207.74 243.472 213.576 236.293L215.806 237.135C223.254 239.922 217.653 244.485 219.665 248.859Z" fill="#7F4E27"/>
<path fill-rule="evenodd" clip-rule="evenodd" d="M170.572 105.937C168.771 105.638 170.984 106.379 166.099 104.592C168.417 104.454 168.771 105.638 170.572 105.937Z" fill="#8C5A2E"/>
<path fill-rule="evenodd" clip-rule="evenodd" d="M170.572 105.937C171.468 103.195 174.512 100.895 176.696 98.9357C200.526 76.3523 204.12 40.6732 192.842 11.1941C192.31 9.80229 191.68 8.63696 190.278 8.02542C189.4 7.98885 188.848 8.29429 188.134 8.75953C178.209 15.233 161.681 53.1183 158.996 64.9423C158.401 67.5623 157.603 71.9605 159.47 74.2097C160.02 74.8732 160.326 74.8277 161.1 74.8103C162.159 74.1083 161.947 73.9049 162.727 72.9115C171.419 61.8506 174.929 48.593 180.029 36.0292C179.364 52.0563 165.324 74.6197 164.791 76.969C166.334 79.2432 165.868 79.8413 165.225 82.3169C164.171 83.189 164.205 82.9496 164.038 84.6681L166.714 85.4433C168.043 86.5695 169.26 86.9898 170.66 88.4099C171.528 89.2916 172.679 90.7636 173.455 91.4554L173.574 91.6793C172.26 97.5239 166.117 99.1827 160.92 99.8469C162.605 101.441 164.319 103.116 166.099 104.592C168.417 104.454 168.771 105.638 170.572 105.937Z" fill="#8C5A2E"/>
</svg>

