<svg width="318" height="387" viewBox="0 0 318 387" fill="none" xmlns="http://www.w3.org/2000/svg">
<path d="M292 238.5C292 319.962 226.634 386 146 386C65.3664 386 0 319.962 0 238.5C0 157.038 65.3664 91 146 91C226.634 91 292 157.038 292 238.5Z" fill="white"/>
<path d="M146 91C198.809 91 245.068 119.326 270.706 161.758C269.566 161.28 268.327 161.016 267.029 161.016C261.951 161.016 257.748 165.027 257.025 170.256C256.106 169.989 255.139 169.843 254.141 169.843C248.06 169.843 243.131 175.128 243.131 181.646C243.131 182.098 243.157 182.543 243.203 182.982C239.084 184.049 236 188.044 236 192.775C236 198.316 240.229 202.849 245.397 202.85H287.704C290.509 214.266 292 226.207 292 238.5C292 319.962 226.634 386 146 386C83.5914 386 30.3294 346.44 9.44043 290.788H17.9824C18.5284 290.788 19.0661 290.749 19.5947 290.682C30.954 289.59 39.8369 280.011 39.8369 268.352C39.8362 255.961 29.8034 245.916 17.4277 245.916C15.5225 245.916 13.6734 246.155 11.9072 246.604C11.7689 239.038 6.95436 232.616 0.234375 230.117C0.972445 216.809 3.45684 203.972 7.45996 191.836H31.9961C32.4177 191.836 32.833 191.806 33.2412 191.754C42.0139 190.909 48.874 183.492 48.874 174.466C48.8735 164.873 41.125 157.096 31.5674 157.096C30.0961 157.096 28.6686 157.282 27.3047 157.629C27.2788 156.212 27.0412 154.846 26.623 153.563C53.0532 115.718 96.6688 91 146 91Z" fill="#97DAF4"/>
<path d="M21 315C21 315 27.3559 324.88 30 328C50.5 358 108.5 399 178 382.5C181.264 382.015 190 379.5 193.5 378C181.966 355.949 176.2 344.399 180.246 320.573C190.736 320.592 199.066 320.418 209.008 316.165C217.323 312.608 225.16 307.283 230.302 299.605C231.856 297.285 233.412 293.355 234.966 291.374C236.098 289.932 240.489 287.636 242.289 286.462C251.228 280.631 254.985 274.009 258.898 264.455C260.068 260.831 260.775 257.073 261 253.271C260.189 244.192 263.501 225.748 243.339 205.363C241.601 203.998 236.166 199.945 234.832 198.547C230.881 194.406 224.779 188.19 225.003 181.97C225.16 177.616 225.827 173.69 225.692 169.102C225.2 152.429 225.567 133.045 217.233 118.188C214.916 114.057 212.072 111.048 208.809 107.808C215.833 97.4149 220.011 90.2509 224.917 78.6073C226.786 74.6781 229.682 62.1271 230.259 57.2521C232.011 39.9872 230.028 19.1416 220.266 4.41715C217.017 -0.482869 211.594 -1.56477 207.186 2.48243C202.392 6.88449 198.885 11.5176 195.049 16.7038C182.739 33.3418 175.585 48.328 173.681 69.1069L173.303 73.19C170.739 73.3043 168.974 73.2882 166.406 73.1663C167.408 72.0825 170.458 68.5538 171.376 67.7394C171.399 67.1516 171.368 66.7365 171.338 66.15L171.338 66.1491C170.737 65.175 169.927 63.8609 168.816 63.4523C163.872 61.6369 153.811 66.3104 149.254 68.1174C151.935 64.4494 152.988 62.4416 154.671 58.2333C155.964 55.0011 154.355 54.2528 151.721 55.2436C146.688 51.9556 136.197 62.4858 132.811 65.7232C131.463 67.3172 130.023 69.0934 128.632 70.6264L126.405 73.5231C125.981 71.2064 125.52 68.8965 125.024 66.594C120.585 46.5987 116.098 33.3764 104.605 16.1295C94.0181 0.243535 84.0423 -7.47098 71.9681 13.3458C60.2423 34.1548 57.2244 61.3019 63.4071 84.321C63.9043 86.2075 64.4748 88.0739 65.1173 89.916C66.676 94.1005 68.5863 99.4747 70.7501 103.314C73.8707 108.851 77.3173 113.939 80.3005 119.618C76.4709 125.262 70.9895 131.711 66.8633 137.317C63.8788 141.371 32.8969 185.302 56.9343 175.854L56.8788 175.978C55.3409 179.43 53.946 182.561 52.189 185.919C48.1944 192.626 38.4431 207.972 39.7336 216.393C40.6255 222.211 47.4186 218.044 50.4621 215.742C48.1052 226.515 45.8939 237.613 42.9568 248.268C42.1348 251.25 38.2692 255.306 39.9614 258.159C41.9853 259.682 45.4967 259.568 48.0275 259.547C45.4216 271.596 37.118 289.918 37.118 289.918C37.118 289.918 31.4396 301.283 27.8634 306.603C25.4474 310.196 21 315 21 315Z" fill="#371B04"/>
<path fill-rule="evenodd" clip-rule="evenodd" d="M176 383C153.693 387.935 130.372 387.026 108.5 381C74.9747 371.764 44.8528 350.93 27 324C31 318 35.8664 313.017 39.5 306C54 278 59.62 247.995 64.8627 218.277C67.0222 205.562 69.4365 192.891 72.1043 180.273C75.4199 164.174 80.6472 135.34 93.9644 124.781C95.3004 123.813 96.3951 123.017 97.8223 122.161L98.1893 122.231C99.6017 121.665 98.9587 121.636 100.179 121.983C101.106 123.589 100.559 124.205 99.9065 125.916C97.9006 131.35 94.9462 136.398 93.2149 141.941C91.7627 146.59 86.3307 167.607 85.2167 173.562C83.2288 184.187 82.5665 195.051 81.8786 205.827C81.4859 211.981 80.3295 218.642 81.6675 224.63C88.0447 253.173 122.024 262.474 126.838 262.905C127.413 262.962 127.994 262.936 128.562 262.828C129.669 261.934 129.233 261.4 128.793 260.116L129.477 259.572C132.686 270.024 137.989 278.212 144.925 286.503C145.87 287.633 147.061 289.034 147.896 290.231C102.736 276.165 89.5841 259.432 82.3778 245.757C73.1277 228.204 74.4631 211.612 75.8556 192.466L75.5964 192.454C75.5151 192.703 75.4383 192.953 75.366 193.206C68.5999 216.995 70.4236 245.779 79.9503 259.234C100.481 288.229 161.054 311.641 167.637 315.229C167.159 319.742 164.891 321 164.891 333.727C166 356 167.694 359.75 172.13 372.015C173.229 375.052 174.922 380.305 176 383Z" fill="#7D5028"/>
<path fill-rule="evenodd" clip-rule="evenodd" d="M189.23 200.985L188.725 200.563L188.948 200.087C199.511 194.261 214.87 193.17 226.493 196.136C221.73 190.792 215.667 182.695 215.495 175.201C215.495 175.201 220.09 131.137 204.443 134.692C202.211 135.199 195.581 141.72 193.846 139.011C193.752 137.621 194.086 136.557 194.713 135.21C196.033 132.379 198.721 127.147 201.783 126.086C203.389 125.53 206.372 127.185 207.835 127.92C205.136 121.271 197.439 110.188 191.572 105.937C189.771 105.638 191.984 106.379 187.099 104.592C187.726 105.713 188.387 106.861 188.978 107.999C191.287 112.449 188.914 113.29 182.384 112.297C176.212 111.358 174.045 110.441 168.493 107.475C170.212 110.357 173.483 115.252 174.044 118.447C174.987 123.818 165.21 121.244 162.726 119.96C157.864 117.446 154.118 113.991 149.97 110.427C150.671 112.202 149.84 119.222 146.745 119.432C135.941 120.165 127.955 112.279 120.619 106.389C120.619 106.389 118.812 114.265 118.205 115.88C118.058 116.27 116.973 118.652 116.973 118.652L116.938 115.751C116.218 108.484 116.826 101.264 116.668 94.0016C116.176 71.324 112.995 47.9282 100.902 28.2492C97.6182 22.9045 87.5153 1.73611 80.0992 13.5171C69.2917 30.6857 68.7353 53.3775 71.1674 72.9802C73.3671 87.1021 86.0317 105.988 94.9783 116.708C95.8471 117.75 98.4697 121.012 97.8223 122.161L98.1893 122.231C99.6017 121.665 98.9587 121.636 100.179 121.983C101.106 123.589 100.559 124.205 99.9065 125.916C97.9006 131.35 94.9462 136.398 93.2149 141.941C91.7627 146.59 86.3307 167.607 85.2167 173.562C83.2287 184.187 82.5665 195.051 81.8786 205.827C81.4859 211.981 80.2025 212.255 81.0258 221.421C83.6555 250.697 100.664 257.821 107.336 260.152C110.001 261.084 114.334 261.809 118.412 262.282C119.946 262.362 125.626 262.796 126.838 262.905C127.65 262.914 128.25 262.889 128.562 262.828C129.669 261.934 129.233 261.4 128.793 260.116C128.085 258.997 127.453 257.995 126.928 256.767C125.17 252.657 125.136 248.01 126.863 243.887C127.711 241.868 128.96 240.042 130.536 238.52C132.111 236.998 133.979 235.813 136.027 235.036C139.399 233.754 144.639 233.205 147.972 234.643C149.05 234.816 152.501 234.719 153.787 234.707C161.432 216.846 171.88 208.706 189.23 200.985ZM100.35 95.713C101.76 93.8239 100.671 91.7807 99.9277 89.8229C97.674 87.2317 91.5368 89.5784 84.7868 51.8034C82.639 39.7825 89.013 38.5517 98.0911 56.7368C96.1577 51.5846 94.1684 46.9015 92.6739 41.5889C107.473 54.0058 114.611 96.7776 103.741 112.607C100.976 108.895 94.83 96.0166 93.2219 91.456C95.5109 92.8966 97.9481 94.5118 100.35 95.713ZM119.487 189.005L118.442 188.718C117.56 186.655 116.436 182.829 116.339 180.027C116.03 171.141 118.183 159.148 127.889 155.876C138.415 152.327 148.18 160.802 151.051 170.493C151.951 173.528 153.038 179.565 151.572 182.409L150.831 180.832C151.273 205.433 131.712 212.176 119.487 189.005Z" fill="#A06838"/>
<path fill-rule="evenodd" clip-rule="evenodd" d="M212.022 154.864C204.181 145.174 197.736 158.363 197.252 167.984C196.937 174.241 196.823 181.497 200.918 186.587C201.296 187.056 202.487 187.821 203.06 187.705C206.365 187.031 209.112 186.455 210.754 183.016C213.086 178.131 214.714 174.359 214.497 167.76C214.273 160.973 214.397 157.8 212.022 154.864Z" fill="#371B04"/>
<path fill-rule="evenodd" clip-rule="evenodd" d="M203.06 187.705C213.317 192.646 214.853 177.953 214.594 173.841C214.243 168.255 213.989 160.911 209.225 157.299C203.97 153.316 198.728 159.178 198.513 165.595C198.384 169.448 204.4 153.026 210.005 166.476C211.617 171.376 213.086 178.131 210.754 183.016C209.112 186.455 206.365 187.031 203.06 187.705Z" fill="#ECD2A3"/>
<path fill-rule="evenodd" clip-rule="evenodd" d="M203.78 164.304C203.219 164.545 202.758 164.973 202.475 165.514C202.191 166.055 202.102 166.677 202.223 167.276C202.344 167.875 202.667 168.414 203.138 168.803C203.609 169.192 204.199 169.407 204.81 169.412C205.207 169.416 205.599 169.331 205.958 169.163C206.317 168.996 206.635 168.751 206.887 168.445C207.14 168.139 207.32 167.781 207.417 167.397C207.513 167.012 207.523 166.611 207.444 166.223C207.366 165.834 207.202 165.468 206.964 165.151C206.726 164.834 206.42 164.574 206.069 164.39C205.718 164.206 205.33 164.103 204.934 164.088C204.538 164.073 204.144 164.147 203.78 164.304Z" fill="white"/>
<path fill-rule="evenodd" clip-rule="evenodd" d="M129.477 259.572L128.793 260.116C128.085 258.997 127.453 257.995 126.928 256.767C125.17 252.657 125.136 248.01 126.863 243.887C127.711 241.868 128.96 240.042 130.536 238.52C132.111 236.998 133.979 235.813 136.027 235.036C139.399 233.754 144.639 233.205 147.972 234.643L147.492 234.918C143.058 237.43 138.433 238.401 134.596 241.957C129.649 246.541 128.667 253.164 129.477 259.572Z" fill="#371B04"/>
<path fill-rule="evenodd" clip-rule="evenodd" d="M126.838 262.905C127.413 262.962 127.994 262.936 128.562 262.828C128.25 262.889 127.65 262.914 126.838 262.905Z" fill="#371B04"/>
<path fill-rule="evenodd" clip-rule="evenodd" d="M150.831 180.832C151.273 205.433 131.712 212.176 119.487 189.005C118.886 179.356 118.563 162.54 130.271 159.889C143.396 156.918 148.728 171.432 150.831 180.832ZM132.859 167.739C134.388 167.692 135.806 167.637 137.329 167.893C138.865 168.142 140.336 168.696 141.654 169.522C142.973 170.348 144.113 171.43 145.007 172.703C149.853 179.574 149.187 193.67 141.656 198.676C129.545 201.249 125.1 185.09 127.11 176.066C128.015 172.001 129.496 169.981 132.859 167.739Z" fill="#ECD2A3"/>
<path fill-rule="evenodd" clip-rule="evenodd" d="M119.487 189.005L118.442 188.718C117.56 187.297 116.436 182.829 116.339 180.027C116.03 171.141 118.183 159.148 127.889 155.876C138.415 152.327 148.18 160.802 151.051 170.493C151.951 173.528 153.038 179.565 151.572 182.409L150.831 180.832C148.728 171.432 143.396 156.918 130.271 159.889C118.563 162.54 118.885 179.356 119.487 189.005Z" fill="#371B04"/>
<path fill-rule="evenodd" clip-rule="evenodd" d="M132.858 167.739C138.879 164.484 143.2 170.13 145.007 172.703C149.853 179.574 149.186 193.67 141.656 198.676C130.828 203.816 125.1 185.09 127.109 176.066C128.015 172.001 129.496 169.981 132.858 167.739ZM137.678 169.206C141.169 169.834 143.394 171.112 140.876 174.741C136.693 174.848 135.147 172.974 137.678 169.206Z" fill="#371B04"/>
<path fill-rule="evenodd" clip-rule="evenodd" d="M137.678 169.206C140.527 167.909 144.036 172.396 140.876 174.741C136.693 176.773 134.133 170.82 137.678 169.206Z" fill="white"/>
<path fill-rule="evenodd" clip-rule="evenodd" d="M100.35 95.713C101.76 93.8239 100.671 91.7807 99.9278 89.8229C97.6741 87.2317 91.5369 89.5784 84.7869 51.8034C82.6391 39.7825 89.0131 38.5517 98.0912 56.7368C99.2476 58.2673 100.02 61.9012 100.661 63.7692C105.509 77.902 104.333 83.8191 103.589 97.5913C102.567 97.0638 101.198 96.4414 100.35 95.713Z" fill="#552F12"/>
<path fill-rule="evenodd" clip-rule="evenodd" d="M98.0912 56.7368C96.1577 51.5846 94.1685 46.9015 92.674 41.5889C107.473 54.0058 114.611 96.7776 103.741 112.607C100.976 108.895 94.8301 96.0166 93.222 91.456C95.5109 92.8966 97.9481 94.5118 100.35 95.713C101.198 96.4414 102.567 97.0638 103.589 97.5913C104.333 83.8191 105.509 77.902 100.661 63.7692C100.019 61.9012 99.2475 58.2673 98.0912 56.7368ZM133.586 130.965C141.881 131.503 144.888 135.98 152.099 140.574C153.196 141.274 152.029 143.19 151.51 143.709C148.649 146.572 142.58 143.464 139.245 140.604C135.892 137.729 133.106 136.551 128.717 137.391C123.272 138.892 120.148 143.504 115.257 145.632C114.391 146.008 113.551 146.003 112.69 145.574C111.511 144.025 114.503 140.898 116.451 138.725C120.784 133.894 125.909 130.468 133.586 130.965Z" fill="#371B04"/>
<path fill-rule="evenodd" clip-rule="evenodd" d="M200.212 198.322C212.297 196.584 224.58 199.675 234.402 206.926C239.626 210.843 244.001 216.344 246.964 222.141C253.015 231.363 252.564 244.414 250.775 254.818C249.011 265.067 241.406 275.28 232.647 280.824C210.046 295.127 176.486 288.928 156.687 272.375C154.081 270.196 151.328 265.645 149.36 262.87C148.54 261.713 145.921 257.618 147.595 256.684C149.366 256.918 150.382 257.744 151.73 257.513C152.156 256.979 152.368 256.616 152.113 255.836C150.017 249.414 136.055 252.461 138.192 259.465C140.11 261.435 141.078 260.267 142.871 259.164C150.463 277.364 164.146 287.944 183.315 292.579C196.84 295.85 207.781 294.678 221.147 292.67C211.463 302.444 202.367 308.412 188.073 308.595C175.748 308.752 165.491 304.651 155.882 297.046C154.197 295.713 149.089 291.021 147.896 290.231C147.061 289.034 145.87 287.633 144.925 286.503C137.989 278.212 132.686 270.024 129.477 259.572C128.667 253.164 129.649 246.541 134.596 241.957C138.433 238.401 143.058 237.43 147.492 234.918L147.972 234.643C149.05 234.816 152.501 234.719 153.787 234.707C161.432 216.846 171.88 208.706 189.23 200.985C192.827 199.596 196.418 198.885 200.212 198.322ZM240.665 248.859C244.349 246.457 246.946 244.002 247.25 239.298C247.471 235.877 245.669 231.567 241.682 231.661C238.509 231.736 236.536 234.146 234.576 236.293C228.74 243.471 233.019 252.739 240.665 248.859ZM185.092 243.122C187.772 246.445 192.397 248.862 196.675 249.182C204.353 249.934 207.294 248.71 205.995 240.622C203.938 227.808 186.965 223.545 182.945 237.015C182.294 239.196 183.852 241.564 185.092 243.122Z" fill="#E8BC80"/>
<path fill-rule="evenodd" clip-rule="evenodd" d="M185.092 243.122C183.852 241.564 182.294 239.196 182.945 237.015C186.965 223.545 203.938 227.808 205.996 240.622C207.294 248.71 204.353 249.934 196.675 249.182C196.593 247.823 197.509 245.113 197.281 244.286C196.469 241.351 191.409 236.83 188.114 237.848C185.784 238.568 186.455 241.527 185.092 243.122Z" fill="#371B04"/>
<path fill-rule="evenodd" clip-rule="evenodd" d="M196.675 249.182C192.397 248.862 187.772 246.445 185.092 243.122C186.455 241.527 185.784 238.568 188.114 237.848C191.409 236.83 196.469 241.351 197.281 244.286C197.509 245.113 196.593 247.823 196.675 249.182Z" fill="#7F4E27"/>
<path fill-rule="evenodd" clip-rule="evenodd" d="M234.576 236.293C236.536 234.146 238.509 231.736 241.682 231.661C245.669 231.567 247.471 235.877 247.25 239.298C246.946 244.002 244.349 246.457 240.665 248.859C238.653 244.485 244.254 239.922 236.806 237.135L234.576 236.293Z" fill="#371B04"/>
<path fill-rule="evenodd" clip-rule="evenodd" d="M240.665 248.859C233.019 252.739 228.74 243.471 234.576 236.293L236.806 237.135C244.254 239.922 238.653 244.485 240.665 248.859Z" fill="#7F4E27"/>
<path fill-rule="evenodd" clip-rule="evenodd" d="M187.099 104.592C191.984 106.379 189.771 105.638 191.572 105.937C189.771 105.638 189.417 104.454 187.099 104.592Z" fill="#8C5A2E"/>
<path fill-rule="evenodd" clip-rule="evenodd" d="M191.572 105.937C192.469 103.195 195.512 100.895 197.696 98.9356C221.526 76.3523 225.12 40.6731 213.842 11.1941C213.31 9.80226 212.68 8.63693 211.278 8.02539C210.4 7.98882 209.848 8.29426 209.134 8.7595C199.209 15.233 182.681 53.1183 179.996 64.9422C179.401 67.5623 178.603 71.9605 180.47 74.2097C181.02 74.8732 181.326 74.8276 182.1 74.8103C183.159 74.1083 182.947 73.9049 183.727 72.9115C192.419 61.8505 195.929 48.593 201.029 36.0292C200.364 52.0563 186.324 74.6197 185.791 76.969C187.334 79.2432 186.868 79.8412 186.225 82.3169C185.171 83.189 185.205 82.9496 185.038 84.6681L187.714 85.4433C189.043 86.5694 190.26 86.9898 191.66 88.4098C192.528 89.2915 193.679 90.7636 194.455 91.4553L194.574 91.6793C193.26 97.5239 187.117 99.1827 181.92 99.8469C183.605 101.441 185.32 103.116 187.1 104.592C189.417 104.454 189.771 105.638 191.572 105.937Z" fill="#8C5A2E"/>
<path d="M282.782 104.14C283.193 102.687 284.594 101.724 286.099 101.861C287.605 101.998 288.808 103.199 288.95 104.702L290.657 122.439C290.778 123.7 291.277 124.895 292.087 125.868C292.898 126.842 293.983 127.548 295.202 127.895L312.337 132.782C313.789 133.193 314.753 134.594 314.616 136.099C314.478 137.605 313.277 138.808 311.774 138.95L294.038 140.657C292.777 140.778 291.582 141.276 290.608 142.087C289.635 142.898 288.929 143.983 288.581 145.201L283.694 162.337C283.494 163.044 283.053 163.659 282.447 164.075C281.841 164.491 281.109 164.682 280.377 164.615C278.871 164.478 277.668 163.277 277.527 161.774L275.82 144.038C275.699 142.777 275.2 141.582 274.389 140.608C273.579 139.635 272.493 138.928 271.275 138.581L254.14 133.694C253.433 133.494 252.818 133.053 252.402 132.447C251.986 131.841 251.794 131.109 251.861 130.377C251.998 128.871 253.199 127.668 254.702 127.527L272.439 125.82C273.7 125.698 274.895 125.2 275.868 124.389C276.842 123.579 277.548 122.493 277.895 121.275L282.782 104.14Z" fill="#274F61"/>
<path d="M305.342 106.078C305.403 105.753 305.69 105.515 306.021 105.515C306.353 105.515 306.639 105.753 306.7 106.078L307.426 109.916C307.477 110.189 307.61 110.44 307.806 110.636C308.003 110.833 308.254 110.965 308.526 111.017L312.364 111.742C312.689 111.803 312.928 112.09 312.928 112.421C312.928 112.753 312.689 113.039 312.364 113.1L308.526 113.826C308.254 113.877 308.003 114.01 307.806 114.206C307.61 114.402 307.477 114.653 307.426 114.926L306.7 118.764C306.67 118.922 306.586 119.065 306.462 119.168C306.338 119.271 306.182 119.328 306.021 119.328C305.69 119.328 305.403 119.089 305.342 118.764L304.617 114.926C304.565 114.653 304.433 114.402 304.236 114.206C304.04 114.01 303.789 113.877 303.516 113.826L299.678 113.1C299.52 113.07 299.377 112.986 299.274 112.862C299.171 112.738 299.115 112.582 299.115 112.421C299.115 112.09 299.353 111.803 299.678 111.742L303.516 111.017C303.789 110.965 304.04 110.833 304.236 110.636C304.433 110.44 304.565 110.189 304.617 109.916L305.342 106.078Z" fill="#274F61"/>
<path d="M255.281 162.321C258.746 162.637 261.811 160.084 262.127 156.619C262.443 153.153 259.89 150.088 256.425 149.772C252.96 149.456 249.895 152.009 249.579 155.474C249.263 158.94 251.816 162.005 255.281 162.321Z" fill="#274F61"/>
</svg>
